<?xml version="1.0" standalone="no"?>
<svg xmlns:xlink="http://www.w3.org/1999/xlink" id="wave" style="transform:rotate(180deg); transition: 0.3s" viewBox="0 0 1440 490" version="1.1" xmlns="http://www.w3.org/2000/svg"><defs><linearGradient id="sw-gradient-0" x1="0" x2="0" y1="1" y2="0"><stop stop-color="rgba(0.129, 0.139, 0.32, 1)" offset="0%"/><stop stop-color="rgba(7.768, 3.689, 255, 1)" offset="100%"/></linearGradient></defs><path style="transform:translate(0, 0px); opacity:1" fill="url(#sw-gradient-0)" d="M0,49L80,73.5C160,98,320,147,480,155.2C640,163,800,131,960,138.8C1120,147,1280,196,1440,245C1600,294,1760,343,1920,359.3C2080,376,2240,359,2400,351.2C2560,343,2720,343,2880,318.5C3040,294,3200,245,3360,187.8C3520,131,3680,65,3840,65.3C4000,65,4160,131,4320,196C4480,261,4640,327,4800,310.3C4960,294,5120,196,5280,163.3C5440,131,5600,163,5760,187.8C5920,212,6080,229,6240,253.2C6400,278,6560,310,6720,269.5C6880,229,7040,114,7200,81.7C7360,49,7520,98,7680,155.2C7840,212,8000,278,8160,310.3C8320,343,8480,343,8640,351.2C8800,359,8960,376,9120,392C9280,408,9440,425,9600,408.3C9760,392,9920,343,10080,318.5C10240,294,10400,294,10560,318.5C10720,343,10880,392,11040,392C11200,392,11360,343,11440,318.5L11520,294L11520,490L11440,490C11360,490,11200,490,11040,490C10880,490,10720,490,10560,490C10400,490,10240,490,10080,490C9920,490,9760,490,9600,490C9440,490,9280,490,9120,490C8960,490,8800,490,8640,490C8480,490,8320,490,8160,490C8000,490,7840,490,7680,490C7520,490,7360,490,7200,490C7040,490,6880,490,6720,490C6560,490,6400,490,6240,490C6080,490,5920,490,5760,490C5600,490,5440,490,5280,490C5120,490,4960,490,4800,490C4640,490,4480,490,4320,490C4160,490,4000,490,3840,490C3680,490,3520,490,3360,490C3200,490,3040,490,2880,490C2720,490,2560,490,2400,490C2240,490,2080,490,1920,490C1760,490,1600,490,1440,490C1280,490,1120,490,960,490C800,490,640,490,480,490C320,490,160,490,80,490L0,490Z"/><defs><linearGradient id="sw-gradient-1" x1="0" x2="0" y1="1" y2="0"><stop stop-color="rgba(95.2, 74.416, 250.767, 1)" offset="0%"/><stop stop-color="rgba(54.518, 7.017, 223.445, 1)" offset="100%"/></linearGradient></defs><path style="transform:translate(0, 50px); opacity:0.9" fill="url(#sw-gradient-1)" d="M0,343L80,326.7C160,310,320,278,480,277.7C640,278,800,310,960,326.7C1120,343,1280,343,1440,359.3C1600,376,1760,408,1920,367.5C2080,327,2240,212,2400,212.3C2560,212,2720,327,2880,383.8C3040,441,3200,441,3360,400.2C3520,359,3680,278,3840,204.2C4000,131,4160,65,4320,32.7C4480,0,4640,0,4800,73.5C4960,147,5120,294,5280,310.3C5440,327,5600,212,5760,171.5C5920,131,6080,163,6240,163.3C6400,163,6560,131,6720,130.7C6880,131,7040,163,7200,179.7C7360,196,7520,196,7680,220.5C7840,245,8000,294,8160,318.5C8320,343,8480,343,8640,318.5C8800,294,8960,245,9120,187.8C9280,131,9440,65,9600,98C9760,131,9920,261,10080,302.2C10240,343,10400,294,10560,269.5C10720,245,10880,245,11040,220.5C11200,196,11360,147,11440,122.5L11520,98L11520,490L11440,490C11360,490,11200,490,11040,490C10880,490,10720,490,10560,490C10400,490,10240,490,10080,490C9920,490,9760,490,9600,490C9440,490,9280,490,9120,490C8960,490,8800,490,8640,490C8480,490,8320,490,8160,490C8000,490,7840,490,7680,490C7520,490,7360,490,7200,490C7040,490,6880,490,6720,490C6560,490,6400,490,6240,490C6080,490,5920,490,5760,490C5600,490,5440,490,5280,490C5120,490,4960,490,4800,490C4640,490,4480,490,4320,490C4160,490,4000,490,3840,490C3680,490,3520,490,3360,490C3200,490,3040,490,2880,490C2720,490,2560,490,2400,490C2240,490,2080,490,1920,490C1760,490,1600,490,1440,490C1280,490,1120,490,960,490C800,490,640,490,480,490C320,490,160,490,80,490L0,490Z"/></svg>